<?xml version="1.0" standalone="no"?>
<!DOCTYPE svg PUBLIC "-//W3C//DTD SVG 20010904//EN"
 "http://www.w3.org/TR/2001/REC-SVG-20010904/DTD/svg10.dtd">
<svg version="1.0" xmlns="http://www.w3.org/2000/svg"
 width="696.000000pt" height="154.000000pt" viewBox="0 0 696.000000 154.000000"
 preserveAspectRatio="xMidYMid meet">

<g transform="translate(0.000000,154.000000) scale(0.100000,-0.100000)"
fill="#000000" stroke="none">
<path d="M6860 1284 l0 -256 -33 44 c-119 155 -330 201 -511 111 -70 -35 -142
-112 -179 -191 -31 -64 -32 -72 -32 -192 0 -120 1 -128 32 -192 91 -193 310
-284 513 -213 57 20 135 78 177 133 l33 44 0 -91 0 -91 45 0 45 0 0 575 0 575
-45 0 -45 0 0 -256z m-198 -171 c65 -30 129 -92 163 -160 26 -52 29 -68 29
-153 0 -85 -3 -101 -29 -153 -33 -67 -97 -130 -163 -160 -67 -31 -207 -31
-274 0 -66 30 -133 96 -165 162 -24 49 -27 67 -27 151 0 75 5 105 21 142 39
85 117 155 206 184 59 20 180 13 239 -13z"/>
<path d="M0 756 l0 -746 110 0 110 0 0 625 c0 720 -14 649 116 587 188 -92
294 -263 294 -477 -1 -143 -40 -235 -150 -346 -41 -42 -88 -85 -104 -96 l-29
-20 104 -131 c57 -72 113 -134 124 -137 11 -3 78 -4 148 -3 l129 3 -95 119
-95 118 40 52 c90 118 143 273 154 454 10 174 56 277 168 379 55 50 152 105
208 119 l28 6 0 -621 0 -621 110 0 110 0 0 741 0 742 -122 -6 c-68 -3 -150
-13 -182 -22 -136 -38 -279 -131 -373 -244 l-56 -67 -106 106 c-163 163 -286
217 -513 227 l-128 6 0 -747z"/>
<path d="M1640 945 l0 -555 150 0 150 0 2 173 3 172 48 3 47 3 85 -175 84
-176 180 0 c100 0 181 2 181 6 0 3 -48 91 -106 196 l-105 190 58 53 c36 32 70
75 88 111 28 54 30 67 30 164 0 93 -3 112 -27 162 -31 66 -106 147 -166 177
-88 45 -140 51 -429 51 l-273 0 0 -555z m541 255 c43 -24 61 -98 35 -149 -22
-41 -55 -51 -171 -51 l-105 0 0 105 0 105 111 0 c61 0 119 -5 130 -10z"/>
<path d="M2941 1219 c-157 -31 -286 -151 -325 -304 -40 -152 0 -302 110 -412
138 -138 369 -171 559 -79 38 19 85 47 103 62 l34 29 -79 69 c-43 38 -85 76
-94 83 -14 12 -22 10 -54 -11 -95 -65 -209 -54 -265 24 -16 23 -18 31 -8 35 7
3 132 6 278 7 l265 3 3 53 c7 116 -45 251 -126 330 -102 99 -251 141 -401 111z
m146 -246 c31 -14 73 -64 73 -85 0 -5 -56 -8 -125 -8 -69 0 -125 3 -125 6 0
20 45 74 73 88 41 20 61 20 104 -1z"/>
<path d="M3899 1215 c-59 -19 -122 -61 -154 -105 l-25 -34 0 67 0 67 -45 0
-45 0 0 -410 0 -410 45 0 45 0 0 273 c0 306 5 339 64 399 54 56 99 73 191 73
112 0 173 -35 221 -125 17 -31 19 -65 22 -327 l3 -293 44 0 44 0 3 288 c3 272
4 289 25 327 25 47 64 85 113 111 26 14 57 19 120 19 75 0 90 -3 133 -28 55
-33 92 -83 106 -147 6 -25 11 -163 11 -307 l0 -263 46 0 45 0 -3 308 c-3 296
-4 309 -26 358 -85 187 -359 233 -520 89 -28 -25 -54 -55 -57 -65 -9 -29 -17
-25 -47 24 -66 104 -223 152 -359 111z"/>
<path d="M5410 1215 c-119 -34 -208 -109 -261 -221 -80 -167 -52 -358 70 -487
111 -117 270 -162 439 -122 34 8 81 24 104 36 46 24 148 115 148 134 0 6 -13
21 -29 32 l-28 22 -43 -44 c-23 -23 -67 -56 -98 -71 -52 -26 -66 -29 -162 -29
-87 0 -113 4 -152 22 -93 43 -173 143 -193 241 l-7 32 378 0 377 0 -6 73 c-13
173 -112 309 -266 368 -74 28 -197 34 -271 14z m269 -110 c68 -37 125 -102
151 -171 38 -103 66 -94 -305 -94 -367 0 -339 -8 -307 82 35 96 106 170 199
204 25 9 67 13 123 11 71 -2 94 -8 139 -32z"/>
<path d="M1981 326 c-26 -31 14 -71 45 -45 8 7 14 22 12 33 -4 26 -40 33 -57
12z"/>
<path d="M2651 326 c-26 -31 14 -71 45 -45 21 17 14 53 -12 57 -11 2 -26 -4
-33 -12z"/>
<path d="M3301 326 c-26 -31 14 -71 45 -45 21 17 14 53 -12 57 -11 2 -26 -4
-33 -12z"/>
<path d="M2760 170 l0 -160 30 0 c17 0 30 5 30 11 0 5 10 3 22 -5 65 -46 158
18 158 109 0 91 -93 155 -158 109 -22 -15 -22 -15 -22 40 0 56 0 56 -30 56
l-30 0 0 -160z m154 9 c37 -29 33 -83 -6 -112 l-28 -21 -27 21 c-40 29 -44 83
-7 112 15 11 30 21 34 21 4 0 19 -10 34 -21z"/>
<path d="M3580 276 l0 -55 -27 15 c-57 29 -119 8 -147 -50 -52 -110 45 -225
147 -172 15 8 27 11 27 5 0 -5 14 -9 30 -9 l30 0 0 160 0 160 -30 0 c-30 0
-30 -1 -30 -54z m-10 -119 c28 -50 -22 -116 -74 -98 -33 12 -52 54 -41 88 20
56 85 62 115 10z"/>
<path d="M1660 165 l0 -155 73 0 c125 0 197 56 197 155 0 99 -72 155 -197 155
l-73 0 0 -155z m184 64 c17 -19 26 -43 26 -64 0 -21 -9 -45 -26 -64 -22 -27
-32 -31 -75 -31 l-49 0 0 95 0 95 49 0 c43 0 53 -4 75 -31z"/>
<path d="M2320 271 c0 -21 -5 -31 -15 -31 -9 0 -15 -9 -15 -25 0 -16 6 -25 15
-25 12 0 15 -14 15 -70 0 -62 3 -74 25 -95 38 -39 95 -31 95 12 0 18 -4 24
-15 19 -34 -13 -45 4 -45 70 l0 64 30 0 c25 0 30 4 30 25 0 21 -5 25 -29 25
-25 0 -30 4 -33 28 -2 21 -9 28 -30 30 -25 3 -28 0 -28 -27z"/>
<path d="M2123 240 c-12 -5 -26 -18 -32 -29 -27 -50 0 -92 69 -111 30 -8 40
-16 38 -28 -4 -20 -49 -28 -76 -13 -15 8 -23 7 -33 -5 -31 -38 71 -70 129 -40
66 34 50 109 -28 136 -58 20 -67 50 -16 50 19 0 38 -5 42 -12 5 -7 11 -5 21 7
19 27 17 32 -18 44 -37 13 -66 13 -96 1z"/>
<path d="M2571 241 c-7 -5 -31 -6 -52 -4 l-39 6 0 -117 0 -116 30 0 30 0 0 73
c0 77 15 107 53 107 12 0 17 9 17 30 0 30 -13 37 -39 21z"/>
<path d="M3755 241 c-11 -5 -31 -21 -45 -36 -20 -22 -25 -37 -25 -81 0 -47 4
-57 33 -86 48 -48 126 -48 174 0 29 29 33 39 33 87 0 48 -4 58 -31 86 -34 33
-99 48 -139 30z m105 -84 c28 -50 -22 -116 -74 -98 -33 12 -52 54 -41 88 20
56 85 62 115 10z"/>
<path d="M4061 241 c-7 -5 -31 -6 -52 -4 l-39 6 0 -117 0 -116 30 0 30 0 0 73
c0 77 15 107 53 107 12 0 17 9 17 30 0 30 -13 37 -39 21z"/>
<path d="M4169 235 c-15 -8 -34 -30 -43 -49 -52 -110 45 -224 147 -172 15 8
27 11 27 5 0 -5 14 -9 30 -9 l30 0 0 115 0 115 -30 0 c-16 0 -30 -4 -30 -9 0
-6 -12 -3 -27 5 -35 18 -70 17 -104 -1z m121 -78 c28 -50 -22 -116 -74 -98
-33 12 -52 54 -41 88 20 56 85 62 115 10z"/>
<path d="M1980 125 l0 -115 30 0 30 0 0 115 0 115 -30 0 -30 0 0 -115z"/>
<path d="M2650 125 l0 -115 30 0 30 0 0 115 0 115 -30 0 -30 0 0 -115z"/>
<path d="M3030 165 c0 -103 17 -140 69 -156 32 -10 50 -10 82 0 52 16 69 53
69 156 l0 75 -30 0 -30 0 0 -80 c0 -74 -2 -81 -25 -96 -23 -15 -27 -15 -50 0
-23 15 -25 22 -25 96 l0 80 -30 0 -30 0 0 -75z"/>
<path d="M3300 125 l0 -115 30 0 30 0 0 115 0 115 -30 0 -30 0 0 -115z"/>
</g>
</svg>
